<mxfile host="Electron" agent="Mozilla/5.0 (Windows NT 10.0; Win64; x64) AppleWebKit/537.36 (KHTML, like Gecko) draw.io/26.0.9 Chrome/128.0.6613.186 Electron/32.2.5 Safari/537.36" version="26.0.9" pages="2">
  <diagram id="FHbaf2GCtJhhZYs1ONkY" name="With Steps">
    <mxGraphModel dx="780" dy="496" grid="1" gridSize="10" guides="1" tooltips="1" connect="1" arrows="1" fold="1" page="1" pageScale="1" pageWidth="3000" pageHeight="3000" math="0" shadow="0">
      <root>
        <mxCell id="0" />
        <mxCell id="1" parent="0" />
        <mxCell id="_0dgUXA0g8c4YlFsxdia-1" value="" style="rounded=0;whiteSpace=wrap;html=1;fillColor=#f5f5f5;fontColor=#333333;strokeColor=#666666;" parent="1" vertex="1">
          <mxGeometry x="920" y="200" width="650" height="460" as="geometry" />
        </mxCell>
        <mxCell id="_0dgUXA0g8c4YlFsxdia-2" value="" style="rounded=0;whiteSpace=wrap;html=1;fillColor=#F5F5F5;fontColor=#333333;strokeColor=#666666;" parent="1" vertex="1">
          <mxGeometry x="90" y="285" width="410" height="230" as="geometry" />
        </mxCell>
        <mxCell id="_0dgUXA0g8c4YlFsxdia-3" value="" style="group" parent="1" vertex="1" connectable="0">
          <mxGeometry x="1120" y="274" width="130" height="70" as="geometry" />
        </mxCell>
        <mxCell id="_0dgUXA0g8c4YlFsxdia-4" value="" style="rounded=0;whiteSpace=wrap;html=1;fillColor=#e1d5e7;strokeColor=#9673a6;" parent="_0dgUXA0g8c4YlFsxdia-3" vertex="1">
          <mxGeometry width="120" height="60" as="geometry" />
        </mxCell>
        <mxCell id="_0dgUXA0g8c4YlFsxdia-5" value="collectors" style="rounded=0;whiteSpace=wrap;html=1;fillColor=#E1D5E7;strokeColor=#9673a6;" parent="_0dgUXA0g8c4YlFsxdia-3" vertex="1">
          <mxGeometry x="10" y="10" width="120" height="60" as="geometry" />
        </mxCell>
        <mxCell id="_0dgUXA0g8c4YlFsxdia-6" value="Application Namespace" style="text;html=1;align=center;verticalAlign=middle;resizable=0;points=[];autosize=1;strokeColor=none;fillColor=none;" parent="1" vertex="1">
          <mxGeometry x="90" y="255" width="150" height="30" as="geometry" />
        </mxCell>
        <mxCell id="_0dgUXA0g8c4YlFsxdia-7" value="&lt;font style=&quot;font-size: 11px;&quot;&gt;PostgreSQL&lt;/font&gt;" style="shape=cylinder3;whiteSpace=wrap;html=1;boundedLbl=1;backgroundOutline=1;size=15;" parent="1" vertex="1">
          <mxGeometry x="1637" y="280" width="70" height="100" as="geometry" />
        </mxCell>
        <mxCell id="_0dgUXA0g8c4YlFsxdia-8" value="PV" style="shape=cylinder3;whiteSpace=wrap;html=1;boundedLbl=1;backgroundOutline=1;size=15;" parent="1" vertex="1">
          <mxGeometry x="958" y="455" width="100" height="60" as="geometry" />
        </mxCell>
        <mxCell id="_0dgUXA0g8c4YlFsxdia-9" value="compactor" style="rounded=0;whiteSpace=wrap;html=1;fillColor=#FFF2CC;strokeColor=#d6b656;" parent="1" vertex="1">
          <mxGeometry x="1350" y="510" width="100" height="60" as="geometry" />
        </mxCell>
        <mxCell id="_0dgUXA0g8c4YlFsxdia-10" style="edgeStyle=orthogonalEdgeStyle;rounded=0;orthogonalLoop=1;jettySize=auto;html=1;exitX=1;exitY=0.5;exitDx=0;exitDy=0;exitPerimeter=0;entryX=0;entryY=0.5;entryDx=0;entryDy=0;entryPerimeter=0;" parent="1" source="_0dgUXA0g8c4YlFsxdia-12" target="_0dgUXA0g8c4YlFsxdia-48" edge="1">
          <mxGeometry relative="1" as="geometry">
            <mxPoint x="1777" y="421" as="targetPoint" />
          </mxGeometry>
        </mxCell>
        <mxCell id="_0dgUXA0g8c4YlFsxdia-11" value="store parquet files" style="edgeLabel;html=1;align=center;verticalAlign=middle;resizable=0;points=[];labelBackgroundColor=none;fontColor=default;" parent="_0dgUXA0g8c4YlFsxdia-10" vertex="1" connectable="0">
          <mxGeometry x="-0.582" y="1" relative="1" as="geometry">
            <mxPoint x="-10" y="-9" as="offset" />
          </mxGeometry>
        </mxCell>
        <mxCell id="_0dgUXA0g8c4YlFsxdia-12" value="PV" style="shape=cylinder3;whiteSpace=wrap;html=1;boundedLbl=1;backgroundOutline=1;size=15;" parent="1" vertex="1">
          <mxGeometry x="1350" y="391" width="100" height="60" as="geometry" />
        </mxCell>
        <mxCell id="_0dgUXA0g8c4YlFsxdia-13" style="edgeStyle=orthogonalEdgeStyle;rounded=0;orthogonalLoop=1;jettySize=auto;html=1;exitX=0.5;exitY=0;exitDx=0;exitDy=0;entryX=0.5;entryY=1;entryDx=0;entryDy=0;entryPerimeter=0;" parent="1" source="_0dgUXA0g8c4YlFsxdia-9" target="_0dgUXA0g8c4YlFsxdia-12" edge="1">
          <mxGeometry relative="1" as="geometry">
            <mxPoint x="1451" y="510" as="sourcePoint" />
          </mxGeometry>
        </mxCell>
        <mxCell id="_0dgUXA0g8c4YlFsxdia-14" value="enrich data &amp;amp; generate parquet files [1h]" style="edgeLabel;html=1;align=center;verticalAlign=middle;resizable=0;points=[];labelBackgroundColor=light-dark(#f5f5f5, #ededed);fontColor=default;" parent="_0dgUXA0g8c4YlFsxdia-13" vertex="1" connectable="0">
          <mxGeometry x="-0.2584" y="3" relative="1" as="geometry">
            <mxPoint x="3" y="-1" as="offset" />
          </mxGeometry>
        </mxCell>
        <mxCell id="_0dgUXA0g8c4YlFsxdia-15" style="edgeStyle=orthogonalEdgeStyle;rounded=0;orthogonalLoop=1;jettySize=auto;html=1;exitX=1;exitY=0.75;exitDx=0;exitDy=0;entryX=0.5;entryY=1;entryDx=0;entryDy=0;entryPerimeter=0;sourcePerimeterSpacing=0;targetPerimeterSpacing=0;endSize=6;" parent="1" source="_0dgUXA0g8c4YlFsxdia-19" target="_0dgUXA0g8c4YlFsxdia-48" edge="1">
          <mxGeometry relative="1" as="geometry">
            <mxPoint x="1817.04" y="471" as="targetPoint" />
          </mxGeometry>
        </mxCell>
        <mxCell id="_0dgUXA0g8c4YlFsxdia-16" value="get parquet files" style="edgeLabel;html=1;align=center;verticalAlign=middle;resizable=0;points=[];labelBackgroundColor=light-dark(#f5f5f5, #ededed);fontColor=default;" parent="_0dgUXA0g8c4YlFsxdia-15" vertex="1" connectable="0">
          <mxGeometry x="-0.8788" y="1" relative="1" as="geometry">
            <mxPoint x="7" y="11" as="offset" />
          </mxGeometry>
        </mxCell>
        <mxCell id="_0dgUXA0g8c4YlFsxdia-17" style="edgeStyle=orthogonalEdgeStyle;rounded=0;orthogonalLoop=1;jettySize=auto;html=1;exitX=0.75;exitY=0;exitDx=0;exitDy=0;entryX=0.75;entryY=1;entryDx=0;entryDy=0;" parent="1" source="_0dgUXA0g8c4YlFsxdia-19" target="_0dgUXA0g8c4YlFsxdia-61" edge="1">
          <mxGeometry relative="1" as="geometry" />
        </mxCell>
        <mxCell id="_0dgUXA0g8c4YlFsxdia-18" value="get dumps" style="edgeLabel;html=1;align=center;verticalAlign=middle;resizable=0;points=[];labelBackgroundColor=light-dark(#f5f5f5, #ededed);fontColor=default;" parent="_0dgUXA0g8c4YlFsxdia-17" vertex="1" connectable="0">
          <mxGeometry x="-0.0666" relative="1" as="geometry">
            <mxPoint y="2" as="offset" />
          </mxGeometry>
        </mxCell>
        <mxCell id="_0dgUXA0g8c4YlFsxdia-19" value="ui service&lt;div&gt;backend&lt;/div&gt;" style="rounded=0;whiteSpace=wrap;html=1;fillColor=#D5E8D4;strokeColor=#82B366;" parent="1" vertex="1">
          <mxGeometry x="1130" y="565" width="120" height="60" as="geometry" />
        </mxCell>
        <mxCell id="_0dgUXA0g8c4YlFsxdia-20" value="&lt;div style=&quot;&quot;&gt;&lt;div&gt;&lt;span style=&quot;text-wrap: nowrap;&quot;&gt;Agents send dumps over &lt;b&gt;HTTP&lt;/b&gt;:&lt;/span&gt;&lt;/div&gt;&lt;div&gt;&lt;span style=&quot;text-wrap: nowrap; background-color: transparent; color: light-dark(rgb(0, 0, 0), rgb(255, 255, 255));&quot;&gt;1. &lt;b&gt;Top &lt;/b&gt;and &lt;b&gt;thread dumps&lt;/b&gt; as text files once per minute&lt;/span&gt;&lt;/div&gt;&lt;div&gt;&lt;span style=&quot;text-wrap: nowrap;&quot;&gt;2.&amp;nbsp;&lt;/span&gt;&lt;span style=&quot;background-color: transparent; text-wrap: nowrap;&quot;&gt;Archived &lt;b&gt;heap dumps&lt;/b&gt; are created when there are OutOfMemoryError on the JVM side&lt;/span&gt;&lt;/div&gt;&lt;/div&gt;" style="rounded=0;whiteSpace=wrap;html=1;labelBackgroundColor=none;fontSize=12;dashed=1;fillColor=#fff2cc;strokeColor=#d6b656;spacingLeft=5;align=left;" parent="1" vertex="1">
          <mxGeometry x="260" y="560" width="500" height="60" as="geometry" />
        </mxCell>
        <mxCell id="_0dgUXA0g8c4YlFsxdia-21" style="edgeStyle=orthogonalEdgeStyle;rounded=0;orthogonalLoop=1;jettySize=auto;html=1;exitX=1;exitY=0.5;exitDx=0;exitDy=0;entryX=0;entryY=0.5;entryDx=0;entryDy=0;startArrow=classic;startFill=1;" parent="1" source="_0dgUXA0g8c4YlFsxdia-22" target="_0dgUXA0g8c4YlFsxdia-19" edge="1">
          <mxGeometry relative="1" as="geometry" />
        </mxCell>
        <mxCell id="_0dgUXA0g8c4YlFsxdia-22" value="ui service&amp;nbsp;&lt;div&gt;frontend&lt;/div&gt;" style="ellipse;whiteSpace=wrap;html=1;fillColor=#D5E8D4;strokeColor=#82B366;" parent="1" vertex="1">
          <mxGeometry x="948" y="562.5" width="120" height="65" as="geometry" />
        </mxCell>
        <mxCell id="_0dgUXA0g8c4YlFsxdia-23" style="edgeStyle=orthogonalEdgeStyle;rounded=0;orthogonalLoop=1;jettySize=auto;html=1;exitX=0.9;exitY=0.5;exitDx=0;exitDy=0;exitPerimeter=0;entryX=0;entryY=0.5;entryDx=0;entryDy=0;" parent="1" source="_0dgUXA0g8c4YlFsxdia-24" target="_0dgUXA0g8c4YlFsxdia-22" edge="1">
          <mxGeometry relative="1" as="geometry" />
        </mxCell>
        <mxCell id="_0dgUXA0g8c4YlFsxdia-24" value="" style="shape=actor;whiteSpace=wrap;html=1;" parent="1" vertex="1">
          <mxGeometry x="844" y="565" width="40" height="60" as="geometry" />
        </mxCell>
        <mxCell id="_0dgUXA0g8c4YlFsxdia-25" value="maintenance job" style="rounded=0;whiteSpace=wrap;html=1;fillColor=#FFE6CC;strokeColor=#d79b00;" parent="1" vertex="1">
          <mxGeometry x="1330" y="220" width="100" height="60" as="geometry" />
        </mxCell>
        <mxCell id="_0dgUXA0g8c4YlFsxdia-26" style="edgeStyle=orthogonalEdgeStyle;rounded=0;orthogonalLoop=1;jettySize=auto;html=1;exitX=1;exitY=0.75;exitDx=0;exitDy=0;entryX=0.5;entryY=0;entryDx=0;entryDy=0;entryPerimeter=0;" parent="1" source="_0dgUXA0g8c4YlFsxdia-25" target="_0dgUXA0g8c4YlFsxdia-7" edge="1">
          <mxGeometry relative="1" as="geometry">
            <Array as="points">
              <mxPoint x="1672" y="265" />
            </Array>
          </mxGeometry>
        </mxCell>
        <mxCell id="_0dgUXA0g8c4YlFsxdia-27" style="edgeStyle=orthogonalEdgeStyle;rounded=0;orthogonalLoop=1;jettySize=auto;html=1;exitX=1;exitY=0.5;exitDx=0;exitDy=0;entryX=0.5;entryY=1;entryDx=0;entryDy=0;entryPerimeter=0;" parent="1" source="_0dgUXA0g8c4YlFsxdia-9" target="_0dgUXA0g8c4YlFsxdia-7" edge="1">
          <mxGeometry relative="1" as="geometry">
            <mxPoint x="1501" y="540" as="sourcePoint" />
          </mxGeometry>
        </mxCell>
        <mxCell id="_0dgUXA0g8c4YlFsxdia-28" value="get calls" style="edgeLabel;html=1;align=center;verticalAlign=middle;resizable=0;points=[];labelBackgroundColor=none;fontColor=default;" parent="_0dgUXA0g8c4YlFsxdia-27" vertex="1" connectable="0">
          <mxGeometry x="-0.8314" y="-1" relative="1" as="geometry">
            <mxPoint y="-11" as="offset" />
          </mxGeometry>
        </mxCell>
        <mxCell id="_0dgUXA0g8c4YlFsxdia-29" style="edgeStyle=orthogonalEdgeStyle;rounded=0;orthogonalLoop=1;jettySize=auto;html=1;exitX=1;exitY=0.5;exitDx=0;exitDy=0;entryX=1;entryY=0.5;entryDx=0;entryDy=0;entryPerimeter=0;" parent="1" source="_0dgUXA0g8c4YlFsxdia-19" target="_0dgUXA0g8c4YlFsxdia-7" edge="1">
          <mxGeometry relative="1" as="geometry" />
        </mxCell>
        <mxCell id="_0dgUXA0g8c4YlFsxdia-30" value="get metadata" style="edgeLabel;html=1;align=center;verticalAlign=middle;resizable=0;points=[];labelBackgroundColor=light-dark(#f5f5f5, #ededed);fontColor=default;" parent="_0dgUXA0g8c4YlFsxdia-29" vertex="1" connectable="0">
          <mxGeometry x="-0.8802" y="3" relative="1" as="geometry">
            <mxPoint x="1" y="-6" as="offset" />
          </mxGeometry>
        </mxCell>
        <mxCell id="_0dgUXA0g8c4YlFsxdia-31" style="edgeStyle=orthogonalEdgeStyle;rounded=0;orthogonalLoop=1;jettySize=auto;html=1;exitX=1;exitY=0.25;exitDx=0;exitDy=0;entryX=0;entryY=0.5;entryDx=0;entryDy=0;" parent="1" source="_0dgUXA0g8c4YlFsxdia-33" target="_0dgUXA0g8c4YlFsxdia-4" edge="1">
          <mxGeometry relative="1" as="geometry" />
        </mxCell>
        <mxCell id="_0dgUXA0g8c4YlFsxdia-32" style="edgeStyle=orthogonalEdgeStyle;rounded=0;orthogonalLoop=1;jettySize=auto;html=1;exitX=1;exitY=0.75;exitDx=0;exitDy=0;entryX=0;entryY=0.5;entryDx=0;entryDy=0;strokeColor=#007FFF;" parent="1" source="_0dgUXA0g8c4YlFsxdia-33" target="_0dgUXA0g8c4YlFsxdia-60" edge="1">
          <mxGeometry relative="1" as="geometry" />
        </mxCell>
        <mxCell id="_0dgUXA0g8c4YlFsxdia-33" value="nc diagnostic agent" style="rounded=0;whiteSpace=wrap;html=1;fillColor=#b1ddf0;strokeColor=#10739e;" parent="1" vertex="1">
          <mxGeometry x="948" y="324" width="120" height="60" as="geometry" />
        </mxCell>
        <mxCell id="_0dgUXA0g8c4YlFsxdia-34" value="&lt;div&gt;&lt;span style=&quot;&quot;&gt;clean old data&lt;/span&gt;&lt;/div&gt;" style="edgeLabel;html=1;align=center;verticalAlign=middle;resizable=0;points=[];labelBackgroundColor=light-dark(#f5f5f5, #ededed);fontColor=default;" parent="1" vertex="1" connectable="0">
          <mxGeometry x="1498.0052631578947" y="274" as="geometry" />
        </mxCell>
        <mxCell id="_0dgUXA0g8c4YlFsxdia-35" value="update db structure" style="edgeLabel;html=1;align=center;verticalAlign=middle;resizable=0;points=[];labelBackgroundColor=light-dark(#f5f5f5, #ededed);fontColor=default;" parent="1" vertex="1" connectable="0">
          <mxGeometry x="1498.0031578947367" y="255" as="geometry" />
        </mxCell>
        <mxCell id="_0dgUXA0g8c4YlFsxdia-36" value="&lt;b&gt;Enriched &lt;/b&gt;data is stored in &lt;b&gt;S3&lt;/b&gt;, partitioned by namespace and duration range.&lt;div&gt;For example: &lt;code data-is-only-node=&quot;&quot; data-end=&quot;134&quot; data-start=&quot;106&quot;&gt;cloud_platform-1ms.parquet&lt;/code&gt;, &lt;code data-end=&quot;165&quot; data-start=&quot;136&quot;&gt;cloud_platform-10ms.parquet&lt;/code&gt;, etc.&lt;br&gt;&lt;/div&gt;" style="rounded=0;whiteSpace=wrap;html=1;labelBackgroundColor=none;fontSize=12;dashed=1;fillColor=#fff2cc;strokeColor=#d6b656;spacingLeft=5;align=left;" parent="1" vertex="1">
          <mxGeometry x="1320" y="700" width="500" height="55" as="geometry" />
        </mxCell>
        <mxCell id="_0dgUXA0g8c4YlFsxdia-37" value="&lt;div&gt;&lt;div&gt;&lt;span style=&quot;text-wrap: nowrap;&quot;&gt;The &lt;b&gt;maintenance job&lt;/b&gt; performs the following tasks:&lt;/span&gt;&lt;/div&gt;&lt;div&gt;&lt;span style=&quot;color: light-dark(rgb(0, 0, 0), rgb(255, 255, 255)); text-wrap: nowrap; background-color: transparent;&quot;&gt;1.&amp;nbsp;&lt;/span&gt;&lt;b style=&quot;color: light-dark(rgb(0, 0, 0), rgb(255, 255, 255)); text-wrap: nowrap; background-color: transparent;&quot;&gt;Creates tables&lt;/b&gt;&lt;span style=&quot;text-wrap: nowrap;&quot;&gt;&lt;br&gt;&lt;/span&gt;&lt;/div&gt;&lt;div&gt;&lt;span style=&quot;background-color: transparent; text-wrap: nowrap;&quot;&gt;&lt;span style=&quot;white-space: pre;&quot;&gt;&#x9;&lt;/span&gt;•&amp;nbsp;&lt;/span&gt;&lt;span style=&quot;background-color: transparent; color: light-dark(rgb(0, 0, 0), rgb(255, 255, 255)); text-wrap: nowrap;&quot;&gt;Runs first to &lt;/span&gt;&lt;b style=&quot;background-color: transparent; color: light-dark(rgb(0, 0, 0), rgb(255, 255, 255)); text-wrap: nowrap;&quot;&gt;migrate the database&lt;/b&gt;&lt;span style=&quot;background-color: transparent; color: light-dark(rgb(0, 0, 0), rgb(255, 255, 255)); text-wrap: nowrap;&quot;&gt; to the latest version&lt;/span&gt;&lt;/div&gt;&lt;div&gt;&lt;span style=&quot;background-color: transparent; color: light-dark(rgb(0, 0, 0), rgb(255, 255, 255)); text-wrap: nowrap;&quot;&gt;2. &lt;/span&gt;&lt;b style=&quot;background-color: transparent; color: light-dark(rgb(0, 0, 0), rgb(255, 255, 255)); text-wrap: nowrap;&quot;&gt;Cleans up&lt;/b&gt;&lt;span style=&quot;background-color: transparent; color: light-dark(rgb(0, 0, 0), rgb(255, 255, 255)); text-wrap: nowrap;&quot;&gt; outdated data from the database (runs hourly)&lt;/span&gt;&lt;br&gt;&lt;/div&gt;&lt;/div&gt;" style="rounded=0;whiteSpace=wrap;html=1;labelBackgroundColor=none;fontSize=12;dashed=1;fillColor=#fff2cc;strokeColor=#d6b656;spacingLeft=5;align=left;" parent="1" vertex="1">
          <mxGeometry x="1120" y="119" width="440" height="68" as="geometry" />
        </mxCell>
        <mxCell id="_0dgUXA0g8c4YlFsxdia-38" value="" style="endArrow=none;dashed=1;html=1;rounded=0;fontSize=12;strokeColor=#d6b656;strokeWidth=1;fillColor=#fff2cc;exitX=0.75;exitY=0;exitDx=0;exitDy=0;" parent="1" source="_0dgUXA0g8c4YlFsxdia-36" edge="1">
          <mxGeometry width="50" height="50" relative="1" as="geometry">
            <mxPoint x="1850" y="570" as="sourcePoint" />
            <mxPoint x="1795.136200716846" y="471" as="targetPoint" />
          </mxGeometry>
        </mxCell>
        <mxCell id="_0dgUXA0g8c4YlFsxdia-39" value="" style="group;fillColor=none;" parent="1" vertex="1" connectable="0">
          <mxGeometry x="110" y="304" width="180" height="96" as="geometry" />
        </mxCell>
        <mxCell id="_0dgUXA0g8c4YlFsxdia-40" value="&lt;blockquote style=&quot;margin: 0px 0px 0px 40px; border: none; padding: 0px;&quot;&gt;&lt;span style=&quot;background-color: initial;&quot;&gt;microservice&lt;/span&gt;&lt;/blockquote&gt;&lt;blockquote style=&quot;margin: 0px 0px 0px 40px; border: none; padding: 0px;&quot;&gt;&lt;span style=&quot;color: rgb(128, 128, 128); background-color: initial;&quot;&gt;Pod&lt;/span&gt;&lt;br&gt;&lt;/blockquote&gt;" style="strokeColor=default;fillColor=default;shadow=0;strokeWidth=1;rounded=0;absoluteArcSize=1;arcSize=2;fontSize=12;fontColor=#000000;align=left;html=1;verticalAlign=top;horizontal=1;spacingTop=0;" parent="_0dgUXA0g8c4YlFsxdia-39" vertex="1">
          <mxGeometry width="180" height="90" as="geometry" />
        </mxCell>
        <mxCell id="_0dgUXA0g8c4YlFsxdia-41" value="" style="aspect=fixed;sketch=0;html=1;dashed=0;whitespace=wrap;verticalLabelPosition=bottom;verticalAlign=top;fillColor=#2875E2;strokeColor=#ffffff;points=[[0.005,0.63,0],[0.1,0.2,0],[0.9,0.2,0],[0.5,0,0],[0.995,0.63,0],[0.72,0.99,0],[0.5,1,0],[0.28,0.99,0]];shape=mxgraph.kubernetes.icon2;prIcon=pod" parent="_0dgUXA0g8c4YlFsxdia-39" vertex="1">
          <mxGeometry x="5" y="6" width="31.24" height="30" as="geometry" />
        </mxCell>
        <mxCell id="_0dgUXA0g8c4YlFsxdia-42" value="profiler-agent" style="rounded=0;whiteSpace=wrap;html=1;fillColor=#dae8fc;strokeColor=#6c8ebf;" parent="_0dgUXA0g8c4YlFsxdia-39" vertex="1">
          <mxGeometry x="10" y="47.5" width="160" height="32.5" as="geometry" />
        </mxCell>
        <mxCell id="_0dgUXA0g8c4YlFsxdia-43" value="Profiler Namespace" style="text;html=1;align=center;verticalAlign=middle;resizable=0;points=[];autosize=1;strokeColor=none;fillColor=none;" parent="1" vertex="1">
          <mxGeometry x="920" y="170" width="130" height="30" as="geometry" />
        </mxCell>
        <mxCell id="_0dgUXA0g8c4YlFsxdia-44" value="" style="group" parent="1" vertex="1" connectable="0">
          <mxGeometry x="110" y="407" width="180" height="90" as="geometry" />
        </mxCell>
        <mxCell id="_0dgUXA0g8c4YlFsxdia-45" value="&lt;blockquote style=&quot;margin: 0px 0px 0px 40px; border: none; padding: 0px;&quot;&gt;&lt;span style=&quot;background-color: initial;&quot;&gt;microservice&lt;/span&gt;&lt;/blockquote&gt;&lt;blockquote style=&quot;margin: 0px 0px 0px 40px; border: none; padding: 0px;&quot;&gt;&lt;span style=&quot;color: rgb(128, 128, 128); background-color: initial;&quot;&gt;Pod&lt;/span&gt;&lt;br&gt;&lt;/blockquote&gt;" style="strokeColor=#000000;fillColor=default;shadow=0;strokeWidth=1;rounded=0;absoluteArcSize=1;arcSize=2;fontSize=12;fontColor=#000000;align=left;html=1;verticalAlign=top;horizontal=1;spacingTop=0;" parent="_0dgUXA0g8c4YlFsxdia-44" vertex="1">
          <mxGeometry width="180" height="90" as="geometry" />
        </mxCell>
        <mxCell id="_0dgUXA0g8c4YlFsxdia-46" value="" style="aspect=fixed;sketch=0;html=1;dashed=0;whitespace=wrap;verticalLabelPosition=bottom;verticalAlign=top;fillColor=#2875E2;strokeColor=#ffffff;points=[[0.005,0.63,0],[0.1,0.2,0],[0.9,0.2,0],[0.5,0,0],[0.995,0.63,0],[0.72,0.99,0],[0.5,1,0],[0.28,0.99,0]];shape=mxgraph.kubernetes.icon2;prIcon=pod" parent="_0dgUXA0g8c4YlFsxdia-44" vertex="1">
          <mxGeometry x="5" y="6" width="31.24" height="30" as="geometry" />
        </mxCell>
        <mxCell id="_0dgUXA0g8c4YlFsxdia-47" value="profiler-agent" style="rounded=0;whiteSpace=wrap;html=1;fillColor=#dae8fc;strokeColor=#6c8ebf;" parent="_0dgUXA0g8c4YlFsxdia-44" vertex="1">
          <mxGeometry x="10" y="47.5" width="160" height="32.5" as="geometry" />
        </mxCell>
        <mxCell id="_0dgUXA0g8c4YlFsxdia-48" value="" style="outlineConnect=0;dashed=0;verticalLabelPosition=bottom;verticalAlign=top;align=center;html=1;shape=mxgraph.aws3.s3;fillColor=#E05243;gradientColor=none;spacingBottom=0;spacing=2;" parent="1" vertex="1">
          <mxGeometry x="1780" y="374.5" width="76" height="92.4" as="geometry" />
        </mxCell>
        <mxCell id="_0dgUXA0g8c4YlFsxdia-49" value="&lt;span style=&quot;font-family: Helvetica; font-size: 12px; font-style: normal; font-variant-ligatures: normal; font-variant-caps: normal; font-weight: 400; letter-spacing: normal; orphans: 2; text-align: center; text-indent: 0px; text-transform: none; widows: 2; word-spacing: 0px; -webkit-text-stroke-width: 0px; white-space: nowrap; text-decoration-thickness: initial; text-decoration-style: initial; text-decoration-color: initial; float: none; display: inline !important;&quot;&gt;S3 Compatible Storage&lt;/span&gt;" style="text;whiteSpace=wrap;html=1;labelBackgroundColor=none;fontColor=default;" parent="1" vertex="1">
          <mxGeometry x="1753" y="345.5" width="130" height="29" as="geometry" />
        </mxCell>
        <mxCell id="_0dgUXA0g8c4YlFsxdia-50" style="edgeStyle=orthogonalEdgeStyle;rounded=0;orthogonalLoop=1;jettySize=auto;html=1;exitX=1;exitY=0.25;exitDx=0;exitDy=0;entryX=0;entryY=0.25;entryDx=0;entryDy=0;" parent="1" source="_0dgUXA0g8c4YlFsxdia-53" target="_0dgUXA0g8c4YlFsxdia-33" edge="1">
          <mxGeometry relative="1" as="geometry">
            <Array as="points">
              <mxPoint x="520" y="385" />
              <mxPoint x="520" y="339" />
            </Array>
          </mxGeometry>
        </mxCell>
        <mxCell id="_0dgUXA0g8c4YlFsxdia-51" value="binary data (dictionaries, calls, traces) [5m]" style="edgeLabel;html=1;align=center;verticalAlign=middle;resizable=0;points=[];" parent="_0dgUXA0g8c4YlFsxdia-50" vertex="1" connectable="0">
          <mxGeometry x="0.0888" y="1" relative="1" as="geometry">
            <mxPoint x="-14" y="-9" as="offset" />
          </mxGeometry>
        </mxCell>
        <mxCell id="_0dgUXA0g8c4YlFsxdia-52" style="edgeStyle=orthogonalEdgeStyle;rounded=0;orthogonalLoop=1;jettySize=auto;html=1;exitX=1;exitY=0.75;exitDx=0;exitDy=0;entryX=0;entryY=0.75;entryDx=0;entryDy=0;strokeColor=#007FFF;" parent="1" source="_0dgUXA0g8c4YlFsxdia-53" target="_0dgUXA0g8c4YlFsxdia-33" edge="1">
          <mxGeometry relative="1" as="geometry">
            <Array as="points">
              <mxPoint x="900" y="415" />
              <mxPoint x="900" y="369" />
            </Array>
          </mxGeometry>
        </mxCell>
        <mxCell id="_0dgUXA0g8c4YlFsxdia-53" value="nc diagnostic agent" style="rounded=0;whiteSpace=wrap;html=1;fillColor=#B1DDF0;strokeColor=#10739e;" parent="1" vertex="1">
          <mxGeometry x="360" y="370" width="120" height="60" as="geometry" />
        </mxCell>
        <mxCell id="_0dgUXA0g8c4YlFsxdia-54" style="edgeStyle=orthogonalEdgeStyle;rounded=0;orthogonalLoop=1;jettySize=auto;html=1;exitX=1;exitY=0.25;exitDx=0;exitDy=0;entryX=0;entryY=0.25;entryDx=0;entryDy=0;" parent="1" source="_0dgUXA0g8c4YlFsxdia-42" target="_0dgUXA0g8c4YlFsxdia-53" edge="1">
          <mxGeometry relative="1" as="geometry">
            <Array as="points">
              <mxPoint x="330" y="360" />
              <mxPoint x="330" y="385" />
            </Array>
          </mxGeometry>
        </mxCell>
        <mxCell id="_0dgUXA0g8c4YlFsxdia-55" style="edgeStyle=orthogonalEdgeStyle;rounded=0;orthogonalLoop=1;jettySize=auto;html=1;exitX=1;exitY=0.25;exitDx=0;exitDy=0;entryX=0;entryY=0.25;entryDx=0;entryDy=0;" parent="1" source="_0dgUXA0g8c4YlFsxdia-47" target="_0dgUXA0g8c4YlFsxdia-53" edge="1">
          <mxGeometry relative="1" as="geometry">
            <Array as="points">
              <mxPoint x="330" y="463" />
              <mxPoint x="330" y="385" />
            </Array>
          </mxGeometry>
        </mxCell>
        <mxCell id="_0dgUXA0g8c4YlFsxdia-56" style="edgeStyle=orthogonalEdgeStyle;rounded=0;orthogonalLoop=1;jettySize=auto;html=1;exitX=1;exitY=0.75;exitDx=0;exitDy=0;entryX=0;entryY=0.75;entryDx=0;entryDy=0;strokeColor=#007FFF;" parent="1" source="_0dgUXA0g8c4YlFsxdia-42" target="_0dgUXA0g8c4YlFsxdia-53" edge="1">
          <mxGeometry relative="1" as="geometry">
            <Array as="points">
              <mxPoint x="310" y="376" />
              <mxPoint x="310" y="415" />
            </Array>
          </mxGeometry>
        </mxCell>
        <mxCell id="_0dgUXA0g8c4YlFsxdia-57" style="edgeStyle=orthogonalEdgeStyle;rounded=0;orthogonalLoop=1;jettySize=auto;html=1;exitX=1;exitY=0.75;exitDx=0;exitDy=0;entryX=0;entryY=0.75;entryDx=0;entryDy=0;strokeColor=#007FFF;" parent="1" source="_0dgUXA0g8c4YlFsxdia-47" target="_0dgUXA0g8c4YlFsxdia-53" edge="1">
          <mxGeometry relative="1" as="geometry">
            <Array as="points">
              <mxPoint x="310" y="479" />
              <mxPoint x="310" y="415" />
            </Array>
          </mxGeometry>
        </mxCell>
        <mxCell id="_0dgUXA0g8c4YlFsxdia-58" value="&lt;div style=&quot;&quot;&gt;Agents continuously collect binary data and transmit it with a granularity of &lt;b&gt;5 minutes&lt;/b&gt; over the &lt;b&gt;TCP protocol&lt;/b&gt;&lt;br&gt;&lt;/div&gt;" style="rounded=0;whiteSpace=wrap;html=1;labelBackgroundColor=none;fontSize=12;dashed=1;fillColor=#fff2cc;strokeColor=#d6b656;spacingLeft=5;align=left;" parent="1" vertex="1">
          <mxGeometry x="610" y="200" width="200" height="70" as="geometry" />
        </mxCell>
        <mxCell id="_0dgUXA0g8c4YlFsxdia-59" value="" style="group" parent="1" vertex="1" connectable="0">
          <mxGeometry x="1120" y="373" width="130" height="70" as="geometry" />
        </mxCell>
        <mxCell id="_0dgUXA0g8c4YlFsxdia-60" value="" style="rounded=0;whiteSpace=wrap;html=1;fillColor=#e1d5e7;strokeColor=#9673a6;" parent="_0dgUXA0g8c4YlFsxdia-59" vertex="1">
          <mxGeometry width="120" height="60" as="geometry" />
        </mxCell>
        <mxCell id="_0dgUXA0g8c4YlFsxdia-61" value="dumps collectors" style="rounded=0;whiteSpace=wrap;html=1;fillColor=#e1d5e7;strokeColor=#9673a6;" parent="_0dgUXA0g8c4YlFsxdia-59" vertex="1">
          <mxGeometry x="10" y="10" width="120" height="60" as="geometry" />
        </mxCell>
        <mxCell id="_0dgUXA0g8c4YlFsxdia-62" style="edgeStyle=orthogonalEdgeStyle;rounded=0;orthogonalLoop=1;jettySize=auto;html=1;exitX=1;exitY=0.5;exitDx=0;exitDy=0;entryX=0;entryY=0.5;entryDx=0;entryDy=0;entryPerimeter=0;" parent="1" source="_0dgUXA0g8c4YlFsxdia-5" target="_0dgUXA0g8c4YlFsxdia-7" edge="1">
          <mxGeometry relative="1" as="geometry">
            <Array as="points">
              <mxPoint x="1270" y="314" />
              <mxPoint x="1270" y="330" />
            </Array>
          </mxGeometry>
        </mxCell>
        <mxCell id="_0dgUXA0g8c4YlFsxdia-63" style="edgeStyle=orthogonalEdgeStyle;rounded=0;orthogonalLoop=1;jettySize=auto;html=1;exitX=1;exitY=0.5;exitDx=0;exitDy=0;entryX=0;entryY=0;entryDx=0;entryDy=67.5;entryPerimeter=0;" parent="1" source="_0dgUXA0g8c4YlFsxdia-61" target="_0dgUXA0g8c4YlFsxdia-7" edge="1">
          <mxGeometry relative="1" as="geometry">
            <Array as="points">
              <mxPoint x="1270" y="413" />
              <mxPoint x="1270" y="348" />
            </Array>
          </mxGeometry>
        </mxCell>
        <mxCell id="_0dgUXA0g8c4YlFsxdia-64" style="edgeStyle=orthogonalEdgeStyle;rounded=0;orthogonalLoop=1;jettySize=auto;html=1;exitX=0.25;exitY=1;exitDx=0;exitDy=0;entryX=1;entryY=0.5;entryDx=0;entryDy=0;entryPerimeter=0;" parent="1" source="_0dgUXA0g8c4YlFsxdia-61" target="_0dgUXA0g8c4YlFsxdia-8" edge="1">
          <mxGeometry relative="1" as="geometry" />
        </mxCell>
        <mxCell id="_0dgUXA0g8c4YlFsxdia-65" value="store dumps" style="edgeLabel;html=1;align=center;verticalAlign=middle;resizable=0;points=[];labelBackgroundColor=light-dark(#f5f5f5, #ededed);fontColor=default;" parent="_0dgUXA0g8c4YlFsxdia-64" vertex="1" connectable="0">
          <mxGeometry x="0.3084" y="-2" relative="1" as="geometry">
            <mxPoint y="-7" as="offset" />
          </mxGeometry>
        </mxCell>
        <mxCell id="_0dgUXA0g8c4YlFsxdia-66" value="" style="endArrow=none;dashed=1;html=1;rounded=0;fontSize=12;strokeColor=#d6b656;strokeWidth=1;fillColor=#fff2cc;exitX=0.5;exitY=1;exitDx=0;exitDy=0;entryX=0.5;entryY=0;entryDx=0;entryDy=0;" parent="1" target="_0dgUXA0g8c4YlFsxdia-25" edge="1">
          <mxGeometry width="50" height="50" relative="1" as="geometry">
            <mxPoint x="1340" y="187" as="sourcePoint" />
            <mxPoint x="1400" y="229" as="targetPoint" />
          </mxGeometry>
        </mxCell>
        <mxCell id="_0dgUXA0g8c4YlFsxdia-67" value="top dumps, thread dumps (txt files) [&lt;span style=&quot;background-color: light-dark(#ffffff, var(--ge-dark-color, #121212)); color: light-dark(rgb(0, 0, 0), rgb(255, 255, 255));&quot;&gt;1m]&lt;/span&gt;" style="edgeLabel;html=1;align=center;verticalAlign=middle;resizable=0;points=[];" parent="1" vertex="1" connectable="0">
          <mxGeometry x="709.9999895833354" y="403.5" as="geometry" />
        </mxCell>
        <mxCell id="_0dgUXA0g8c4YlFsxdia-68" value="heap dumps (zip archives)&amp;nbsp;" style="edgeLabel;html=1;align=center;verticalAlign=middle;resizable=0;points=[];" parent="1" vertex="1" connectable="0">
          <mxGeometry x="716.9999895833354" y="423.5" as="geometry" />
        </mxCell>
        <mxCell id="_0dgUXA0g8c4YlFsxdia-69" value="" style="endArrow=none;dashed=1;html=1;rounded=0;fontSize=12;strokeColor=#d6b656;strokeWidth=1;fillColor=#fff2cc;exitX=0.5;exitY=1;exitDx=0;exitDy=0;" parent="1" source="_0dgUXA0g8c4YlFsxdia-58" edge="1">
          <mxGeometry width="50" height="50" relative="1" as="geometry">
            <mxPoint x="720" y="260" as="sourcePoint" />
            <mxPoint x="710" y="320" as="targetPoint" />
          </mxGeometry>
        </mxCell>
        <mxCell id="_0dgUXA0g8c4YlFsxdia-70" value="" style="endArrow=none;dashed=1;html=1;rounded=0;fontSize=12;strokeColor=#d6b656;strokeWidth=1;fillColor=#fff2cc;exitX=0.75;exitY=0;exitDx=0;exitDy=0;" parent="1" source="_0dgUXA0g8c4YlFsxdia-20" edge="1">
          <mxGeometry width="50" height="50" relative="1" as="geometry">
            <mxPoint x="720" y="280" as="sourcePoint" />
            <mxPoint x="710" y="430" as="targetPoint" />
          </mxGeometry>
        </mxCell>
        <mxCell id="_0dgUXA0g8c4YlFsxdia-99" style="rounded=0;orthogonalLoop=1;jettySize=auto;html=1;entryX=0;entryY=0.5;entryDx=0;entryDy=0;startArrow=none;startFill=0;endArrow=none;dashed=1;strokeColor=#9B76FF;" parent="1" source="_0dgUXA0g8c4YlFsxdia-92" target="_0dgUXA0g8c4YlFsxdia-47" edge="1">
          <mxGeometry relative="1" as="geometry" />
        </mxCell>
        <mxCell id="_0dgUXA0g8c4YlFsxdia-100" style="rounded=0;orthogonalLoop=1;jettySize=auto;html=1;entryX=0;entryY=0.5;entryDx=0;entryDy=0;dashed=1;endArrow=none;startFill=0;strokeColor=#9B76FF;" parent="1" source="_0dgUXA0g8c4YlFsxdia-92" target="_0dgUXA0g8c4YlFsxdia-42" edge="1">
          <mxGeometry relative="1" as="geometry" />
        </mxCell>
        <mxCell id="_0dgUXA0g8c4YlFsxdia-92" value="1" style="ellipse;whiteSpace=wrap;html=1;aspect=fixed;rotation=0;gradientColor=#470CED;strokeColor=none;gradientDirection=east;fillColor=#9B76FF;rounded=0;pointerEvents=0;fontFamily=Helvetica;fontSize=16;fontColor=#FFFFFF;spacingTop=4;spacingBottom=4;spacingLeft=4;spacingRight=4;points=[];fontStyle=1" parent="1" vertex="1">
          <mxGeometry x="30" y="403.5" width="30" height="30" as="geometry" />
        </mxCell>
        <mxCell id="_0dgUXA0g8c4YlFsxdia-104" style="edgeStyle=orthogonalEdgeStyle;rounded=0;orthogonalLoop=1;jettySize=auto;html=1;entryX=0.5;entryY=0;entryDx=0;entryDy=0;strokeColor=#9B76FF;dashed=1;endArrow=none;startFill=0;" parent="1" source="_0dgUXA0g8c4YlFsxdia-97" target="_0dgUXA0g8c4YlFsxdia-53" edge="1">
          <mxGeometry relative="1" as="geometry">
            <Array as="points">
              <mxPoint x="420" y="350" />
            </Array>
          </mxGeometry>
        </mxCell>
        <mxCell id="_0dgUXA0g8c4YlFsxdia-97" value="2" style="ellipse;whiteSpace=wrap;html=1;aspect=fixed;rotation=0;gradientColor=#470CED;strokeColor=none;gradientDirection=east;fillColor=#9B76FF;rounded=0;pointerEvents=0;fontFamily=Helvetica;fontSize=16;fontColor=#FFFFFF;spacingTop=4;spacingBottom=4;spacingLeft=4;spacingRight=4;points=[];fontStyle=1" parent="1" vertex="1">
          <mxGeometry x="360" y="334" width="30" height="30" as="geometry" />
        </mxCell>
        <mxCell id="_0dgUXA0g8c4YlFsxdia-106" style="edgeStyle=orthogonalEdgeStyle;rounded=0;orthogonalLoop=1;jettySize=auto;html=1;entryX=0.5;entryY=0;entryDx=0;entryDy=0;dashed=1;endArrow=none;startFill=0;strokeColor=#9B76FF;" parent="1" source="_0dgUXA0g8c4YlFsxdia-105" target="_0dgUXA0g8c4YlFsxdia-33" edge="1">
          <mxGeometry relative="1" as="geometry">
            <Array as="points">
              <mxPoint x="1008" y="300" />
            </Array>
          </mxGeometry>
        </mxCell>
        <mxCell id="_0dgUXA0g8c4YlFsxdia-105" value="3" style="ellipse;whiteSpace=wrap;html=1;aspect=fixed;rotation=0;gradientColor=#470CED;strokeColor=none;gradientDirection=east;fillColor=#9B76FF;rounded=0;pointerEvents=0;fontFamily=Helvetica;fontSize=16;fontColor=#FFFFFF;spacingTop=4;spacingBottom=4;spacingLeft=4;spacingRight=4;points=[];fontStyle=1" parent="1" vertex="1">
          <mxGeometry x="1038" y="285" width="30" height="30" as="geometry" />
        </mxCell>
        <mxCell id="_0dgUXA0g8c4YlFsxdia-108" style="edgeStyle=orthogonalEdgeStyle;rounded=0;orthogonalLoop=1;jettySize=auto;html=1;entryX=0;entryY=0.75;entryDx=0;entryDy=0;endArrow=none;startFill=0;dashed=1;strokeColor=#9B76FF;" parent="1" source="_0dgUXA0g8c4YlFsxdia-107" target="_0dgUXA0g8c4YlFsxdia-60" edge="1">
          <mxGeometry relative="1" as="geometry" />
        </mxCell>
        <mxCell id="_0dgUXA0g8c4YlFsxdia-107" value="4" style="ellipse;whiteSpace=wrap;html=1;aspect=fixed;rotation=0;gradientColor=#470CED;strokeColor=none;gradientDirection=east;fillColor=#9B76FF;rounded=0;pointerEvents=0;fontFamily=Helvetica;fontSize=16;fontColor=#FFFFFF;spacingTop=4;spacingBottom=4;spacingLeft=4;spacingRight=4;points=[];fontStyle=1" parent="1" vertex="1">
          <mxGeometry x="1038" y="402.7" width="30" height="30" as="geometry" />
        </mxCell>
        <mxCell id="_0dgUXA0g8c4YlFsxdia-111" style="edgeStyle=orthogonalEdgeStyle;rounded=0;orthogonalLoop=1;jettySize=auto;html=1;entryX=0.5;entryY=0;entryDx=0;entryDy=0;strokeColor=#9B76FF;endArrow=none;startFill=0;dashed=1;" parent="1" source="_0dgUXA0g8c4YlFsxdia-109" target="_0dgUXA0g8c4YlFsxdia-4" edge="1">
          <mxGeometry relative="1" as="geometry">
            <Array as="points">
              <mxPoint x="1180" y="250" />
            </Array>
          </mxGeometry>
        </mxCell>
        <mxCell id="_0dgUXA0g8c4YlFsxdia-109" value="5" style="ellipse;whiteSpace=wrap;html=1;aspect=fixed;rotation=0;gradientColor=#470CED;strokeColor=none;gradientDirection=east;fillColor=#9B76FF;rounded=0;pointerEvents=0;fontFamily=Helvetica;fontSize=16;fontColor=#FFFFFF;spacingTop=4;spacingBottom=4;spacingLeft=4;spacingRight=4;points=[];fontStyle=1" parent="1" vertex="1">
          <mxGeometry x="1120" y="235" width="30" height="30" as="geometry" />
        </mxCell>
        <mxCell id="_0dgUXA0g8c4YlFsxdia-114" style="edgeStyle=orthogonalEdgeStyle;rounded=0;orthogonalLoop=1;jettySize=auto;html=1;entryX=0;entryY=0.5;entryDx=0;entryDy=0;strokeColor=#9B76FF;endArrow=none;startFill=0;dashed=1;" parent="1" source="_0dgUXA0g8c4YlFsxdia-112" target="_0dgUXA0g8c4YlFsxdia-9" edge="1">
          <mxGeometry relative="1" as="geometry" />
        </mxCell>
        <mxCell id="_0dgUXA0g8c4YlFsxdia-112" value="6" style="ellipse;whiteSpace=wrap;html=1;aspect=fixed;rotation=0;gradientColor=#470CED;strokeColor=none;gradientDirection=east;fillColor=#9B76FF;rounded=0;pointerEvents=0;fontFamily=Helvetica;fontSize=16;fontColor=#FFFFFF;spacingTop=4;spacingBottom=4;spacingLeft=4;spacingRight=4;points=[];fontStyle=1" parent="1" vertex="1">
          <mxGeometry x="1280" y="525" width="30" height="30" as="geometry" />
        </mxCell>
        <mxCell id="_0dgUXA0g8c4YlFsxdia-118" style="edgeStyle=orthogonalEdgeStyle;rounded=0;orthogonalLoop=1;jettySize=auto;html=1;entryX=0;entryY=0.5;entryDx=0;entryDy=0;endArrow=none;startFill=0;strokeColor=#9B76FF;dashed=1;" parent="1" source="_0dgUXA0g8c4YlFsxdia-117" target="_0dgUXA0g8c4YlFsxdia-25" edge="1">
          <mxGeometry relative="1" as="geometry" />
        </mxCell>
        <mxCell id="_0dgUXA0g8c4YlFsxdia-117" value="7" style="ellipse;whiteSpace=wrap;html=1;aspect=fixed;rotation=0;gradientColor=#470CED;strokeColor=none;gradientDirection=east;fillColor=#9B76FF;rounded=0;pointerEvents=0;fontFamily=Helvetica;fontSize=16;fontColor=#FFFFFF;spacingTop=4;spacingBottom=4;spacingLeft=4;spacingRight=4;points=[];fontStyle=1" parent="1" vertex="1">
          <mxGeometry x="1260" y="235" width="30" height="30" as="geometry" />
        </mxCell>
        <mxCell id="_0dgUXA0g8c4YlFsxdia-121" style="rounded=0;orthogonalLoop=1;jettySize=auto;html=1;entryX=0.5;entryY=0;entryDx=0;entryDy=0;strokeColor=#9B76FF;endArrow=none;startFill=0;dashed=1;" parent="1" source="_0dgUXA0g8c4YlFsxdia-119" target="_0dgUXA0g8c4YlFsxdia-22" edge="1">
          <mxGeometry relative="1" as="geometry" />
        </mxCell>
        <mxCell id="_0dgUXA0g8c4YlFsxdia-122" style="rounded=0;orthogonalLoop=1;jettySize=auto;html=1;entryX=0.5;entryY=0;entryDx=0;entryDy=0;strokeColor=#9B76FF;endArrow=none;startFill=0;dashed=1;" parent="1" source="_0dgUXA0g8c4YlFsxdia-119" target="_0dgUXA0g8c4YlFsxdia-19" edge="1">
          <mxGeometry relative="1" as="geometry" />
        </mxCell>
        <mxCell id="_0dgUXA0g8c4YlFsxdia-119" value="8" style="ellipse;whiteSpace=wrap;html=1;aspect=fixed;rotation=0;gradientColor=#470CED;strokeColor=none;gradientDirection=east;fillColor=#9B76FF;rounded=0;pointerEvents=0;fontFamily=Helvetica;fontSize=16;fontColor=#FFFFFF;spacingTop=4;spacingBottom=4;spacingLeft=4;spacingRight=4;points=[];fontStyle=1" parent="1" vertex="1">
          <mxGeometry x="1080" y="525" width="30" height="30" as="geometry" />
        </mxCell>
        <mxCell id="LpKuNeXpybV-f3NLbSvo-1" value="parse &amp;amp; store calls [5-15m]" style="edgeLabel;html=1;align=center;verticalAlign=middle;resizable=0;points=[];fontColor=default;labelBackgroundColor=none;" parent="1" vertex="1" connectable="0">
          <mxGeometry x="1340" y="290" as="geometry">
            <mxPoint x="6" y="30" as="offset" />
          </mxGeometry>
        </mxCell>
        <mxCell id="LpKuNeXpybV-f3NLbSvo-2" value="store metadata" style="edgeLabel;html=1;align=center;verticalAlign=middle;resizable=0;points=[];fontColor=default;labelBackgroundColor=none;" parent="1" vertex="1" connectable="0">
          <mxGeometry x="1339.996666666667" y="356.0000000000002" as="geometry" />
        </mxCell>
        <mxCell id="2nJbm70fbmF6R4WJWjnB-1" style="edgeStyle=orthogonalEdgeStyle;rounded=0;orthogonalLoop=1;jettySize=auto;html=1;exitX=1;exitY=0.25;exitDx=0;exitDy=0;entryX=1;entryY=0.5;entryDx=0;entryDy=0;entryPerimeter=0;" parent="1" source="_0dgUXA0g8c4YlFsxdia-25" target="_0dgUXA0g8c4YlFsxdia-48" edge="1">
          <mxGeometry relative="1" as="geometry">
            <Array as="points">
              <mxPoint x="1890" y="235" />
              <mxPoint x="1890" y="421" />
            </Array>
          </mxGeometry>
        </mxCell>
        <mxCell id="2nJbm70fbmF6R4WJWjnB-3" value="&lt;div&gt;&lt;span style=&quot;&quot;&gt;clean old data&lt;/span&gt;&lt;/div&gt;" style="edgeLabel;html=1;align=center;verticalAlign=middle;resizable=0;points=[];labelBackgroundColor=light-dark(#f5f5f5, #ededed);fontColor=default;" parent="1" vertex="1" connectable="0">
          <mxGeometry x="1497.9952631578947" y="226" as="geometry" />
        </mxCell>
      </root>
    </mxGraphModel>
  </diagram>
  <diagram id="BTPm5eAul0cIcQF_9M95" name="Main">
    <mxGraphModel dx="1300" dy="827" grid="1" gridSize="10" guides="1" tooltips="1" connect="1" arrows="1" fold="1" page="1" pageScale="1" pageWidth="3000" pageHeight="3000" math="0" shadow="0">
      <root>
        <mxCell id="0" />
        <mxCell id="1" parent="0" />
        <mxCell id="x3ROV1wlzOylkpjwtZsS-1" value="" style="rounded=0;whiteSpace=wrap;html=1;fillColor=#f5f5f5;fontColor=#333333;strokeColor=#666666;" parent="1" vertex="1">
          <mxGeometry x="920" y="200" width="650" height="460" as="geometry" />
        </mxCell>
        <mxCell id="x3ROV1wlzOylkpjwtZsS-2" value="" style="rounded=0;whiteSpace=wrap;html=1;fillColor=#f5f5f5;fontColor=#333333;strokeColor=#666666;" parent="1" vertex="1">
          <mxGeometry x="90" y="285" width="410" height="230" as="geometry" />
        </mxCell>
        <mxCell id="x3ROV1wlzOylkpjwtZsS-6" value="" style="group" parent="1" vertex="1" connectable="0">
          <mxGeometry x="1120" y="274" width="130" height="70" as="geometry" />
        </mxCell>
        <mxCell id="x3ROV1wlzOylkpjwtZsS-7" value="" style="rounded=0;whiteSpace=wrap;html=1;fillColor=#e1d5e7;strokeColor=#9673a6;" parent="x3ROV1wlzOylkpjwtZsS-6" vertex="1">
          <mxGeometry width="120" height="60" as="geometry" />
        </mxCell>
        <mxCell id="x3ROV1wlzOylkpjwtZsS-8" value="collectors" style="rounded=0;whiteSpace=wrap;html=1;fillColor=#e1d5e7;strokeColor=#9673a6;" parent="x3ROV1wlzOylkpjwtZsS-6" vertex="1">
          <mxGeometry x="10" y="10" width="120" height="60" as="geometry" />
        </mxCell>
        <mxCell id="x3ROV1wlzOylkpjwtZsS-9" value="Application Namespace" style="text;html=1;align=center;verticalAlign=middle;resizable=0;points=[];autosize=1;strokeColor=none;fillColor=none;" parent="1" vertex="1">
          <mxGeometry x="90" y="255" width="150" height="30" as="geometry" />
        </mxCell>
        <mxCell id="x3ROV1wlzOylkpjwtZsS-10" value="&lt;font style=&quot;font-size: 11px;&quot;&gt;PostgreSQL&lt;/font&gt;" style="shape=cylinder3;whiteSpace=wrap;html=1;boundedLbl=1;backgroundOutline=1;size=15;" parent="1" vertex="1">
          <mxGeometry x="1637" y="264" width="70" height="100" as="geometry" />
        </mxCell>
        <mxCell id="x3ROV1wlzOylkpjwtZsS-11" value="PV" style="shape=cylinder3;whiteSpace=wrap;html=1;boundedLbl=1;backgroundOutline=1;size=15;" parent="1" vertex="1">
          <mxGeometry x="958" y="455" width="100" height="60" as="geometry" />
        </mxCell>
        <mxCell id="x3ROV1wlzOylkpjwtZsS-14" value="compactor" style="rounded=0;whiteSpace=wrap;html=1;fillColor=#fff2cc;strokeColor=#d6b656;" parent="1" vertex="1">
          <mxGeometry x="1350" y="510" width="100" height="60" as="geometry" />
        </mxCell>
        <mxCell id="x3ROV1wlzOylkpjwtZsS-15" style="edgeStyle=orthogonalEdgeStyle;rounded=0;orthogonalLoop=1;jettySize=auto;html=1;exitX=1;exitY=0.5;exitDx=0;exitDy=0;exitPerimeter=0;entryX=0;entryY=0.5;entryDx=0;entryDy=0;entryPerimeter=0;" parent="1" source="x3ROV1wlzOylkpjwtZsS-17" target="x3ROV1wlzOylkpjwtZsS-57" edge="1">
          <mxGeometry relative="1" as="geometry">
            <mxPoint x="1777" y="421" as="targetPoint" />
          </mxGeometry>
        </mxCell>
        <mxCell id="x3ROV1wlzOylkpjwtZsS-16" value="store parquet files" style="edgeLabel;html=1;align=center;verticalAlign=middle;resizable=0;points=[];labelBackgroundColor=none;fontColor=default;" parent="x3ROV1wlzOylkpjwtZsS-15" vertex="1" connectable="0">
          <mxGeometry x="-0.582" y="1" relative="1" as="geometry">
            <mxPoint x="-10" y="-9" as="offset" />
          </mxGeometry>
        </mxCell>
        <mxCell id="x3ROV1wlzOylkpjwtZsS-17" value="PV" style="shape=cylinder3;whiteSpace=wrap;html=1;boundedLbl=1;backgroundOutline=1;size=15;" parent="1" vertex="1">
          <mxGeometry x="1350" y="391" width="100" height="60" as="geometry" />
        </mxCell>
        <mxCell id="x3ROV1wlzOylkpjwtZsS-18" style="edgeStyle=orthogonalEdgeStyle;rounded=0;orthogonalLoop=1;jettySize=auto;html=1;exitX=0.5;exitY=0;exitDx=0;exitDy=0;entryX=0.5;entryY=1;entryDx=0;entryDy=0;entryPerimeter=0;" parent="1" source="x3ROV1wlzOylkpjwtZsS-14" target="x3ROV1wlzOylkpjwtZsS-17" edge="1">
          <mxGeometry relative="1" as="geometry">
            <mxPoint x="1451" y="510" as="sourcePoint" />
          </mxGeometry>
        </mxCell>
        <mxCell id="x3ROV1wlzOylkpjwtZsS-19" value="enrich data &amp;amp; generate parquet files [1h]" style="edgeLabel;html=1;align=center;verticalAlign=middle;resizable=0;points=[];labelBackgroundColor=light-dark(#f5f5f5, #ededed);fontColor=default;" parent="x3ROV1wlzOylkpjwtZsS-18" vertex="1" connectable="0">
          <mxGeometry x="-0.2584" y="3" relative="1" as="geometry">
            <mxPoint x="3" y="-1" as="offset" />
          </mxGeometry>
        </mxCell>
        <mxCell id="x3ROV1wlzOylkpjwtZsS-20" style="edgeStyle=orthogonalEdgeStyle;rounded=0;orthogonalLoop=1;jettySize=auto;html=1;exitX=1;exitY=0.75;exitDx=0;exitDy=0;entryX=0.5;entryY=1;entryDx=0;entryDy=0;entryPerimeter=0;sourcePerimeterSpacing=0;targetPerimeterSpacing=0;endSize=6;" parent="1" source="x3ROV1wlzOylkpjwtZsS-22" target="x3ROV1wlzOylkpjwtZsS-57" edge="1">
          <mxGeometry relative="1" as="geometry">
            <mxPoint x="1817.04" y="471" as="targetPoint" />
          </mxGeometry>
        </mxCell>
        <mxCell id="x3ROV1wlzOylkpjwtZsS-21" value="get parquet files" style="edgeLabel;html=1;align=center;verticalAlign=middle;resizable=0;points=[];labelBackgroundColor=light-dark(#f5f5f5, #ededed);fontColor=default;" parent="x3ROV1wlzOylkpjwtZsS-20" vertex="1" connectable="0">
          <mxGeometry x="-0.8788" y="1" relative="1" as="geometry">
            <mxPoint x="7" y="11" as="offset" />
          </mxGeometry>
        </mxCell>
        <mxCell id="pT57T87r2NQnxWDxepqg-1" style="edgeStyle=orthogonalEdgeStyle;rounded=0;orthogonalLoop=1;jettySize=auto;html=1;exitX=0.75;exitY=0;exitDx=0;exitDy=0;entryX=0.75;entryY=1;entryDx=0;entryDy=0;" parent="1" source="x3ROV1wlzOylkpjwtZsS-22" target="x3ROV1wlzOylkpjwtZsS-5" edge="1">
          <mxGeometry relative="1" as="geometry" />
        </mxCell>
        <mxCell id="pT57T87r2NQnxWDxepqg-2" value="get dumps" style="edgeLabel;html=1;align=center;verticalAlign=middle;resizable=0;points=[];labelBackgroundColor=light-dark(#f5f5f5, #ededed);fontColor=default;" parent="pT57T87r2NQnxWDxepqg-1" vertex="1" connectable="0">
          <mxGeometry x="-0.0666" relative="1" as="geometry">
            <mxPoint y="2" as="offset" />
          </mxGeometry>
        </mxCell>
        <mxCell id="x3ROV1wlzOylkpjwtZsS-22" value="ui service&lt;div&gt;backend&lt;/div&gt;" style="rounded=0;whiteSpace=wrap;html=1;fillColor=#d5e8d4;strokeColor=#82B366;" parent="1" vertex="1">
          <mxGeometry x="1130" y="565" width="120" height="60" as="geometry" />
        </mxCell>
        <mxCell id="x3ROV1wlzOylkpjwtZsS-23" value="&lt;div style=&quot;&quot;&gt;&lt;div&gt;&lt;span style=&quot;text-wrap: nowrap;&quot;&gt;Agents send dumps over &lt;b&gt;HTTP&lt;/b&gt;:&lt;/span&gt;&lt;/div&gt;&lt;div&gt;&lt;span style=&quot;text-wrap: nowrap; background-color: transparent; color: light-dark(rgb(0, 0, 0), rgb(255, 255, 255));&quot;&gt;1. &lt;b&gt;Top &lt;/b&gt;and &lt;b&gt;thread dumps&lt;/b&gt; as text files once per minute&lt;/span&gt;&lt;/div&gt;&lt;div&gt;&lt;span style=&quot;text-wrap: nowrap;&quot;&gt;2.&amp;nbsp;&lt;/span&gt;&lt;span style=&quot;background-color: transparent; text-wrap: nowrap;&quot;&gt;Archived &lt;b&gt;heap dumps&lt;/b&gt; are created when there are OutOfMemoryError on the JVM side&lt;/span&gt;&lt;/div&gt;&lt;/div&gt;" style="rounded=0;whiteSpace=wrap;html=1;labelBackgroundColor=none;fontSize=12;dashed=1;fillColor=#fff2cc;strokeColor=#d6b656;spacingLeft=5;align=left;" parent="1" vertex="1">
          <mxGeometry x="260" y="560" width="500" height="60" as="geometry" />
        </mxCell>
        <mxCell id="x3ROV1wlzOylkpjwtZsS-25" style="edgeStyle=orthogonalEdgeStyle;rounded=0;orthogonalLoop=1;jettySize=auto;html=1;exitX=1;exitY=0.5;exitDx=0;exitDy=0;entryX=0;entryY=0.5;entryDx=0;entryDy=0;startArrow=classic;startFill=1;" parent="1" source="x3ROV1wlzOylkpjwtZsS-26" target="x3ROV1wlzOylkpjwtZsS-22" edge="1">
          <mxGeometry relative="1" as="geometry" />
        </mxCell>
        <mxCell id="x3ROV1wlzOylkpjwtZsS-26" value="ui service&amp;nbsp;&lt;div&gt;frontend&lt;/div&gt;" style="ellipse;whiteSpace=wrap;html=1;fillColor=#D5E8D4;strokeColor=#82B366;" parent="1" vertex="1">
          <mxGeometry x="948" y="562.5" width="120" height="65" as="geometry" />
        </mxCell>
        <mxCell id="x3ROV1wlzOylkpjwtZsS-27" style="edgeStyle=orthogonalEdgeStyle;rounded=0;orthogonalLoop=1;jettySize=auto;html=1;exitX=0.9;exitY=0.5;exitDx=0;exitDy=0;exitPerimeter=0;entryX=0;entryY=0.5;entryDx=0;entryDy=0;" parent="1" source="x3ROV1wlzOylkpjwtZsS-28" target="x3ROV1wlzOylkpjwtZsS-26" edge="1">
          <mxGeometry relative="1" as="geometry" />
        </mxCell>
        <mxCell id="x3ROV1wlzOylkpjwtZsS-28" value="" style="shape=actor;whiteSpace=wrap;html=1;" parent="1" vertex="1">
          <mxGeometry x="844" y="565" width="40" height="60" as="geometry" />
        </mxCell>
        <mxCell id="x3ROV1wlzOylkpjwtZsS-29" value="maintenance job" style="rounded=0;whiteSpace=wrap;html=1;fillColor=#ffe6cc;strokeColor=#d79b00;" parent="1" vertex="1">
          <mxGeometry x="1330" y="220" width="100" height="60" as="geometry" />
        </mxCell>
        <mxCell id="x3ROV1wlzOylkpjwtZsS-34" style="edgeStyle=orthogonalEdgeStyle;rounded=0;orthogonalLoop=1;jettySize=auto;html=1;exitX=1;exitY=0.5;exitDx=0;exitDy=0;entryX=0.5;entryY=0;entryDx=0;entryDy=0;entryPerimeter=0;" parent="1" source="x3ROV1wlzOylkpjwtZsS-29" target="x3ROV1wlzOylkpjwtZsS-10" edge="1">
          <mxGeometry relative="1" as="geometry">
            <Array as="points">
              <mxPoint x="1672" y="250" />
            </Array>
          </mxGeometry>
        </mxCell>
        <mxCell id="x3ROV1wlzOylkpjwtZsS-35" style="edgeStyle=orthogonalEdgeStyle;rounded=0;orthogonalLoop=1;jettySize=auto;html=1;exitX=1;exitY=0.5;exitDx=0;exitDy=0;entryX=0.5;entryY=1;entryDx=0;entryDy=0;entryPerimeter=0;" parent="1" source="x3ROV1wlzOylkpjwtZsS-14" target="x3ROV1wlzOylkpjwtZsS-10" edge="1">
          <mxGeometry relative="1" as="geometry">
            <mxPoint x="1501" y="540" as="sourcePoint" />
          </mxGeometry>
        </mxCell>
        <mxCell id="x3ROV1wlzOylkpjwtZsS-36" value="get calls" style="edgeLabel;html=1;align=center;verticalAlign=middle;resizable=0;points=[];labelBackgroundColor=none;fontColor=default;" parent="x3ROV1wlzOylkpjwtZsS-35" vertex="1" connectable="0">
          <mxGeometry x="-0.8314" y="-1" relative="1" as="geometry">
            <mxPoint y="-11" as="offset" />
          </mxGeometry>
        </mxCell>
        <mxCell id="x3ROV1wlzOylkpjwtZsS-37" style="edgeStyle=orthogonalEdgeStyle;rounded=0;orthogonalLoop=1;jettySize=auto;html=1;exitX=1;exitY=0.5;exitDx=0;exitDy=0;entryX=1;entryY=0.5;entryDx=0;entryDy=0;entryPerimeter=0;" parent="1" source="x3ROV1wlzOylkpjwtZsS-22" target="x3ROV1wlzOylkpjwtZsS-10" edge="1">
          <mxGeometry relative="1" as="geometry" />
        </mxCell>
        <mxCell id="x3ROV1wlzOylkpjwtZsS-38" value="get metadata" style="edgeLabel;html=1;align=center;verticalAlign=middle;resizable=0;points=[];labelBackgroundColor=light-dark(#f5f5f5, #ededed);fontColor=default;" parent="x3ROV1wlzOylkpjwtZsS-37" vertex="1" connectable="0">
          <mxGeometry x="-0.8802" y="3" relative="1" as="geometry">
            <mxPoint x="1" y="-6" as="offset" />
          </mxGeometry>
        </mxCell>
        <mxCell id="fMyUaJlKTqiFzUqrgqSy-5" style="edgeStyle=orthogonalEdgeStyle;rounded=0;orthogonalLoop=1;jettySize=auto;html=1;exitX=1;exitY=0.25;exitDx=0;exitDy=0;entryX=0;entryY=0.5;entryDx=0;entryDy=0;" parent="1" source="x3ROV1wlzOylkpjwtZsS-41" target="x3ROV1wlzOylkpjwtZsS-7" edge="1">
          <mxGeometry relative="1" as="geometry" />
        </mxCell>
        <mxCell id="fMyUaJlKTqiFzUqrgqSy-6" style="edgeStyle=orthogonalEdgeStyle;rounded=0;orthogonalLoop=1;jettySize=auto;html=1;exitX=1;exitY=0.75;exitDx=0;exitDy=0;entryX=0;entryY=0.5;entryDx=0;entryDy=0;strokeColor=#007FFF;" parent="1" source="x3ROV1wlzOylkpjwtZsS-41" target="x3ROV1wlzOylkpjwtZsS-4" edge="1">
          <mxGeometry relative="1" as="geometry" />
        </mxCell>
        <mxCell id="x3ROV1wlzOylkpjwtZsS-41" value="nc diagnostic agent" style="rounded=0;whiteSpace=wrap;html=1;fillColor=#b1ddf0;strokeColor=#10739e;" parent="1" vertex="1">
          <mxGeometry x="948" y="324" width="120" height="60" as="geometry" />
        </mxCell>
        <mxCell id="x3ROV1wlzOylkpjwtZsS-42" value="&lt;div&gt;&lt;span style=&quot;&quot;&gt;clean old data&lt;/span&gt;&lt;/div&gt;" style="edgeLabel;html=1;align=center;verticalAlign=middle;resizable=0;points=[];labelBackgroundColor=light-dark(#f5f5f5, #ededed);fontColor=default;" parent="1" vertex="1" connectable="0">
          <mxGeometry x="1498.8452631578946" y="260" as="geometry" />
        </mxCell>
        <mxCell id="x3ROV1wlzOylkpjwtZsS-43" value="update db structure" style="edgeLabel;html=1;align=center;verticalAlign=middle;resizable=0;points=[];labelBackgroundColor=light-dark(#f5f5f5, #ededed);fontColor=default;" parent="1" vertex="1" connectable="0">
          <mxGeometry x="1498.0031578947367" y="240" as="geometry" />
        </mxCell>
        <mxCell id="x3ROV1wlzOylkpjwtZsS-44" value="&lt;b&gt;Enriched &lt;/b&gt;data is stored in &lt;b&gt;S3&lt;/b&gt;, partitioned by namespace and duration range.&lt;div&gt;For example: &lt;code data-is-only-node=&quot;&quot; data-end=&quot;134&quot; data-start=&quot;106&quot;&gt;cloud_platform-1ms.parquet&lt;/code&gt;, &lt;code data-end=&quot;165&quot; data-start=&quot;136&quot;&gt;cloud_platform-10ms.parquet&lt;/code&gt;, etc.&lt;br&gt;&lt;/div&gt;" style="rounded=0;whiteSpace=wrap;html=1;labelBackgroundColor=none;fontSize=12;dashed=1;fillColor=#fff2cc;strokeColor=#d6b656;spacingLeft=5;align=left;" parent="1" vertex="1">
          <mxGeometry x="1320" y="700" width="500" height="55" as="geometry" />
        </mxCell>
        <mxCell id="x3ROV1wlzOylkpjwtZsS-45" value="&lt;div&gt;&lt;div&gt;&lt;span style=&quot;text-wrap: nowrap;&quot;&gt;The &lt;b&gt;maintenance job&lt;/b&gt; performs the following tasks:&lt;/span&gt;&lt;/div&gt;&lt;div&gt;&lt;span style=&quot;color: light-dark(rgb(0, 0, 0), rgb(255, 255, 255)); text-wrap: nowrap; background-color: transparent;&quot;&gt;1.&amp;nbsp;&lt;/span&gt;&lt;b style=&quot;color: light-dark(rgb(0, 0, 0), rgb(255, 255, 255)); text-wrap: nowrap; background-color: transparent;&quot;&gt;Creates tables&lt;/b&gt;&lt;span style=&quot;text-wrap: nowrap;&quot;&gt;&lt;br&gt;&lt;/span&gt;&lt;/div&gt;&lt;div&gt;&lt;span style=&quot;background-color: transparent; text-wrap: nowrap;&quot;&gt;&lt;span style=&quot;white-space: pre;&quot;&gt;&#x9;&lt;/span&gt;•&amp;nbsp;&lt;/span&gt;&lt;span style=&quot;background-color: transparent; color: light-dark(rgb(0, 0, 0), rgb(255, 255, 255)); text-wrap: nowrap;&quot;&gt;Runs first to &lt;/span&gt;&lt;b style=&quot;background-color: transparent; color: light-dark(rgb(0, 0, 0), rgb(255, 255, 255)); text-wrap: nowrap;&quot;&gt;migrate the database&lt;/b&gt;&lt;span style=&quot;background-color: transparent; color: light-dark(rgb(0, 0, 0), rgb(255, 255, 255)); text-wrap: nowrap;&quot;&gt; to the latest version&lt;/span&gt;&lt;/div&gt;&lt;div&gt;&lt;span style=&quot;background-color: transparent; color: light-dark(rgb(0, 0, 0), rgb(255, 255, 255)); text-wrap: nowrap;&quot;&gt;2. &lt;/span&gt;&lt;b style=&quot;background-color: transparent; color: light-dark(rgb(0, 0, 0), rgb(255, 255, 255)); text-wrap: nowrap;&quot;&gt;Cleans up&lt;/b&gt;&lt;span style=&quot;background-color: transparent; color: light-dark(rgb(0, 0, 0), rgb(255, 255, 255)); text-wrap: nowrap;&quot;&gt; outdated data from the database (runs hourly)&lt;/span&gt;&lt;br&gt;&lt;/div&gt;&lt;/div&gt;" style="rounded=0;whiteSpace=wrap;html=1;labelBackgroundColor=none;fontSize=12;dashed=1;fillColor=#fff2cc;strokeColor=#d6b656;spacingLeft=5;align=left;" parent="1" vertex="1">
          <mxGeometry x="1120" y="119" width="440" height="68" as="geometry" />
        </mxCell>
        <mxCell id="x3ROV1wlzOylkpjwtZsS-47" value="" style="endArrow=none;dashed=1;html=1;rounded=0;fontSize=12;strokeColor=#d6b656;strokeWidth=1;fillColor=#fff2cc;exitX=0.75;exitY=0;exitDx=0;exitDy=0;" parent="1" source="x3ROV1wlzOylkpjwtZsS-44" edge="1">
          <mxGeometry width="50" height="50" relative="1" as="geometry">
            <mxPoint x="1850" y="570" as="sourcePoint" />
            <mxPoint x="1795.136200716846" y="471" as="targetPoint" />
          </mxGeometry>
        </mxCell>
        <mxCell id="x3ROV1wlzOylkpjwtZsS-48" value="" style="group" parent="1" vertex="1" connectable="0">
          <mxGeometry x="110" y="304" width="180" height="90" as="geometry" />
        </mxCell>
        <mxCell id="x3ROV1wlzOylkpjwtZsS-49" value="&lt;blockquote style=&quot;margin: 0px 0px 0px 40px; border: none; padding: 0px;&quot;&gt;&lt;span style=&quot;background-color: initial;&quot;&gt;microservice&lt;/span&gt;&lt;/blockquote&gt;&lt;blockquote style=&quot;margin: 0px 0px 0px 40px; border: none; padding: 0px;&quot;&gt;&lt;span style=&quot;color: rgb(128, 128, 128); background-color: initial;&quot;&gt;Pod&lt;/span&gt;&lt;br&gt;&lt;/blockquote&gt;" style="strokeColor=default;fillColor=default;shadow=0;strokeWidth=1;rounded=0;absoluteArcSize=1;arcSize=2;fontSize=12;fontColor=#000000;align=left;html=1;verticalAlign=top;horizontal=1;spacingTop=0;" parent="x3ROV1wlzOylkpjwtZsS-48" vertex="1">
          <mxGeometry width="180" height="90" as="geometry" />
        </mxCell>
        <mxCell id="x3ROV1wlzOylkpjwtZsS-50" value="" style="aspect=fixed;sketch=0;html=1;dashed=0;whitespace=wrap;verticalLabelPosition=bottom;verticalAlign=top;fillColor=#2875E2;strokeColor=#ffffff;points=[[0.005,0.63,0],[0.1,0.2,0],[0.9,0.2,0],[0.5,0,0],[0.995,0.63,0],[0.72,0.99,0],[0.5,1,0],[0.28,0.99,0]];shape=mxgraph.kubernetes.icon2;prIcon=pod" parent="x3ROV1wlzOylkpjwtZsS-48" vertex="1">
          <mxGeometry x="5" y="6" width="31.24" height="30" as="geometry" />
        </mxCell>
        <mxCell id="x3ROV1wlzOylkpjwtZsS-51" value="profiler-agent" style="rounded=0;whiteSpace=wrap;html=1;fillColor=#dae8fc;strokeColor=#6c8ebf;" parent="x3ROV1wlzOylkpjwtZsS-48" vertex="1">
          <mxGeometry x="10" y="47.5" width="160" height="32.5" as="geometry" />
        </mxCell>
        <mxCell id="x3ROV1wlzOylkpjwtZsS-52" value="Profiler Namespace" style="text;html=1;align=center;verticalAlign=middle;resizable=0;points=[];autosize=1;strokeColor=none;fillColor=none;" parent="1" vertex="1">
          <mxGeometry x="920" y="170" width="130" height="30" as="geometry" />
        </mxCell>
        <mxCell id="x3ROV1wlzOylkpjwtZsS-53" value="" style="group" parent="1" vertex="1" connectable="0">
          <mxGeometry x="110" y="407" width="180" height="90" as="geometry" />
        </mxCell>
        <mxCell id="x3ROV1wlzOylkpjwtZsS-54" value="&lt;blockquote style=&quot;margin: 0px 0px 0px 40px; border: none; padding: 0px;&quot;&gt;&lt;span style=&quot;background-color: initial;&quot;&gt;microservice&lt;/span&gt;&lt;/blockquote&gt;&lt;blockquote style=&quot;margin: 0px 0px 0px 40px; border: none; padding: 0px;&quot;&gt;&lt;span style=&quot;color: rgb(128, 128, 128); background-color: initial;&quot;&gt;Pod&lt;/span&gt;&lt;br&gt;&lt;/blockquote&gt;" style="strokeColor=#000000;fillColor=default;shadow=0;strokeWidth=1;rounded=0;absoluteArcSize=1;arcSize=2;fontSize=12;fontColor=#000000;align=left;html=1;verticalAlign=top;horizontal=1;spacingTop=0;" parent="x3ROV1wlzOylkpjwtZsS-53" vertex="1">
          <mxGeometry width="180" height="90" as="geometry" />
        </mxCell>
        <mxCell id="x3ROV1wlzOylkpjwtZsS-55" value="" style="aspect=fixed;sketch=0;html=1;dashed=0;whitespace=wrap;verticalLabelPosition=bottom;verticalAlign=top;fillColor=#2875E2;strokeColor=#ffffff;points=[[0.005,0.63,0],[0.1,0.2,0],[0.9,0.2,0],[0.5,0,0],[0.995,0.63,0],[0.72,0.99,0],[0.5,1,0],[0.28,0.99,0]];shape=mxgraph.kubernetes.icon2;prIcon=pod" parent="x3ROV1wlzOylkpjwtZsS-53" vertex="1">
          <mxGeometry x="5" y="6" width="31.24" height="30" as="geometry" />
        </mxCell>
        <mxCell id="x3ROV1wlzOylkpjwtZsS-56" value="profiler-agent" style="rounded=0;whiteSpace=wrap;html=1;fillColor=#dae8fc;strokeColor=#6c8ebf;" parent="x3ROV1wlzOylkpjwtZsS-53" vertex="1">
          <mxGeometry x="10" y="47.5" width="160" height="32.5" as="geometry" />
        </mxCell>
        <mxCell id="x3ROV1wlzOylkpjwtZsS-57" value="" style="outlineConnect=0;dashed=0;verticalLabelPosition=bottom;verticalAlign=top;align=center;html=1;shape=mxgraph.aws3.s3;fillColor=#E05243;gradientColor=none;spacingBottom=0;spacing=2;" parent="1" vertex="1">
          <mxGeometry x="1780" y="374.5" width="76" height="92.4" as="geometry" />
        </mxCell>
        <mxCell id="x3ROV1wlzOylkpjwtZsS-58" value="&lt;span style=&quot;font-family: Helvetica; font-size: 12px; font-style: normal; font-variant-ligatures: normal; font-variant-caps: normal; font-weight: 400; letter-spacing: normal; orphans: 2; text-align: center; text-indent: 0px; text-transform: none; widows: 2; word-spacing: 0px; -webkit-text-stroke-width: 0px; white-space: nowrap; text-decoration-thickness: initial; text-decoration-style: initial; text-decoration-color: initial; float: none; display: inline !important;&quot;&gt;S3 Compatible Storage&lt;/span&gt;" style="text;whiteSpace=wrap;html=1;labelBackgroundColor=none;fontColor=default;" parent="1" vertex="1">
          <mxGeometry x="1753" y="345.5" width="130" height="29" as="geometry" />
        </mxCell>
        <mxCell id="N-d4UP_7OqaCbr8OF022-6" style="edgeStyle=orthogonalEdgeStyle;rounded=0;orthogonalLoop=1;jettySize=auto;html=1;exitX=1;exitY=0.25;exitDx=0;exitDy=0;entryX=0;entryY=0.25;entryDx=0;entryDy=0;" parent="1" source="x3ROV1wlzOylkpjwtZsS-61" target="x3ROV1wlzOylkpjwtZsS-41" edge="1">
          <mxGeometry relative="1" as="geometry">
            <Array as="points">
              <mxPoint x="520" y="385" />
              <mxPoint x="520" y="339" />
            </Array>
          </mxGeometry>
        </mxCell>
        <mxCell id="JfM1vPq_tbjyKrZpLkYZ-1" value="binary data (dictionaries, calls, traces) [5m]" style="edgeLabel;html=1;align=center;verticalAlign=middle;resizable=0;points=[];" parent="N-d4UP_7OqaCbr8OF022-6" vertex="1" connectable="0">
          <mxGeometry x="0.0888" y="1" relative="1" as="geometry">
            <mxPoint x="-14" y="-9" as="offset" />
          </mxGeometry>
        </mxCell>
        <mxCell id="N-d4UP_7OqaCbr8OF022-7" style="edgeStyle=orthogonalEdgeStyle;rounded=0;orthogonalLoop=1;jettySize=auto;html=1;exitX=1;exitY=0.75;exitDx=0;exitDy=0;entryX=0;entryY=0.75;entryDx=0;entryDy=0;strokeColor=#007FFF;" parent="1" source="x3ROV1wlzOylkpjwtZsS-61" target="x3ROV1wlzOylkpjwtZsS-41" edge="1">
          <mxGeometry relative="1" as="geometry">
            <Array as="points">
              <mxPoint x="900" y="415" />
              <mxPoint x="900" y="369" />
            </Array>
          </mxGeometry>
        </mxCell>
        <mxCell id="x3ROV1wlzOylkpjwtZsS-61" value="nc diagnostic agent" style="rounded=0;whiteSpace=wrap;html=1;fillColor=#b1ddf0;strokeColor=#10739e;" parent="1" vertex="1">
          <mxGeometry x="360" y="370" width="120" height="60" as="geometry" />
        </mxCell>
        <mxCell id="x3ROV1wlzOylkpjwtZsS-62" style="edgeStyle=orthogonalEdgeStyle;rounded=0;orthogonalLoop=1;jettySize=auto;html=1;exitX=1;exitY=0.25;exitDx=0;exitDy=0;entryX=0;entryY=0.25;entryDx=0;entryDy=0;" parent="1" source="x3ROV1wlzOylkpjwtZsS-51" target="x3ROV1wlzOylkpjwtZsS-61" edge="1">
          <mxGeometry relative="1" as="geometry">
            <Array as="points">
              <mxPoint x="330" y="360" />
              <mxPoint x="330" y="385" />
            </Array>
          </mxGeometry>
        </mxCell>
        <mxCell id="x3ROV1wlzOylkpjwtZsS-63" style="edgeStyle=orthogonalEdgeStyle;rounded=0;orthogonalLoop=1;jettySize=auto;html=1;exitX=1;exitY=0.25;exitDx=0;exitDy=0;entryX=0;entryY=0.25;entryDx=0;entryDy=0;" parent="1" source="x3ROV1wlzOylkpjwtZsS-56" target="x3ROV1wlzOylkpjwtZsS-61" edge="1">
          <mxGeometry relative="1" as="geometry">
            <Array as="points">
              <mxPoint x="330" y="463" />
              <mxPoint x="330" y="385" />
            </Array>
          </mxGeometry>
        </mxCell>
        <mxCell id="x3ROV1wlzOylkpjwtZsS-64" style="edgeStyle=orthogonalEdgeStyle;rounded=0;orthogonalLoop=1;jettySize=auto;html=1;exitX=1;exitY=0.75;exitDx=0;exitDy=0;entryX=0;entryY=0.75;entryDx=0;entryDy=0;strokeColor=#007FFF;" parent="1" source="x3ROV1wlzOylkpjwtZsS-51" target="x3ROV1wlzOylkpjwtZsS-61" edge="1">
          <mxGeometry relative="1" as="geometry">
            <Array as="points">
              <mxPoint x="310" y="376" />
              <mxPoint x="310" y="415" />
            </Array>
          </mxGeometry>
        </mxCell>
        <mxCell id="x3ROV1wlzOylkpjwtZsS-65" style="edgeStyle=orthogonalEdgeStyle;rounded=0;orthogonalLoop=1;jettySize=auto;html=1;exitX=1;exitY=0.75;exitDx=0;exitDy=0;entryX=0;entryY=0.75;entryDx=0;entryDy=0;strokeColor=#007FFF;" parent="1" source="x3ROV1wlzOylkpjwtZsS-56" target="x3ROV1wlzOylkpjwtZsS-61" edge="1">
          <mxGeometry relative="1" as="geometry">
            <Array as="points">
              <mxPoint x="310" y="479" />
              <mxPoint x="310" y="415" />
            </Array>
          </mxGeometry>
        </mxCell>
        <mxCell id="x3ROV1wlzOylkpjwtZsS-69" value="&lt;div style=&quot;&quot;&gt;Agents continuously collect binary data and transmit it with a granularity of &lt;b&gt;5 minutes&lt;/b&gt; over the &lt;b&gt;TCP protocol&lt;/b&gt;&lt;br&gt;&lt;/div&gt;" style="rounded=0;whiteSpace=wrap;html=1;labelBackgroundColor=none;fontSize=12;dashed=1;fillColor=#fff2cc;strokeColor=#d6b656;spacingLeft=5;align=left;" parent="1" vertex="1">
          <mxGeometry x="610" y="200" width="200" height="70" as="geometry" />
        </mxCell>
        <mxCell id="x3ROV1wlzOylkpjwtZsS-76" value="" style="group" parent="1" vertex="1" connectable="0">
          <mxGeometry x="1120" y="373" width="130" height="70" as="geometry" />
        </mxCell>
        <mxCell id="x3ROV1wlzOylkpjwtZsS-4" value="" style="rounded=0;whiteSpace=wrap;html=1;fillColor=#e1d5e7;strokeColor=#9673a6;" parent="x3ROV1wlzOylkpjwtZsS-76" vertex="1">
          <mxGeometry width="120" height="60" as="geometry" />
        </mxCell>
        <mxCell id="x3ROV1wlzOylkpjwtZsS-5" value="dumps collectors" style="rounded=0;whiteSpace=wrap;html=1;fillColor=#e1d5e7;strokeColor=#9673a6;" parent="x3ROV1wlzOylkpjwtZsS-76" vertex="1">
          <mxGeometry x="10" y="10" width="120" height="60" as="geometry" />
        </mxCell>
        <mxCell id="N-d4UP_7OqaCbr8OF022-1" style="edgeStyle=orthogonalEdgeStyle;rounded=0;orthogonalLoop=1;jettySize=auto;html=1;exitX=1;exitY=0.5;exitDx=0;exitDy=0;entryX=0;entryY=0.5;entryDx=0;entryDy=0;entryPerimeter=0;" parent="1" source="x3ROV1wlzOylkpjwtZsS-8" target="x3ROV1wlzOylkpjwtZsS-10" edge="1">
          <mxGeometry relative="1" as="geometry" />
        </mxCell>
        <mxCell id="I84DEJVdtethmWh9b7q1-3" value="parse &amp;amp; store calls [5-15m]" style="edgeLabel;html=1;align=center;verticalAlign=middle;resizable=0;points=[];fontColor=default;labelBackgroundColor=none;" vertex="1" connectable="0" parent="N-d4UP_7OqaCbr8OF022-1">
          <mxGeometry x="-0.6125" y="-1" relative="1" as="geometry">
            <mxPoint x="15" y="-11" as="offset" />
          </mxGeometry>
        </mxCell>
        <mxCell id="N-d4UP_7OqaCbr8OF022-2" style="edgeStyle=orthogonalEdgeStyle;rounded=0;orthogonalLoop=1;jettySize=auto;html=1;exitX=1;exitY=0.5;exitDx=0;exitDy=0;entryX=0;entryY=0;entryDx=0;entryDy=67.5;entryPerimeter=0;" parent="1" source="x3ROV1wlzOylkpjwtZsS-5" target="x3ROV1wlzOylkpjwtZsS-10" edge="1">
          <mxGeometry relative="1" as="geometry">
            <Array as="points">
              <mxPoint x="1270" y="413" />
              <mxPoint x="1270" y="332" />
            </Array>
          </mxGeometry>
        </mxCell>
        <mxCell id="I84DEJVdtethmWh9b7q1-2" value="store metadata" style="edgeLabel;html=1;align=center;verticalAlign=middle;resizable=0;points=[];fontColor=default;labelBackgroundColor=none;" vertex="1" connectable="0" parent="N-d4UP_7OqaCbr8OF022-2">
          <mxGeometry x="-0.3084" relative="1" as="geometry">
            <mxPoint x="9" y="12" as="offset" />
          </mxGeometry>
        </mxCell>
        <mxCell id="N-d4UP_7OqaCbr8OF022-3" style="edgeStyle=orthogonalEdgeStyle;rounded=0;orthogonalLoop=1;jettySize=auto;html=1;exitX=0.25;exitY=1;exitDx=0;exitDy=0;entryX=1;entryY=0.5;entryDx=0;entryDy=0;entryPerimeter=0;" parent="1" source="x3ROV1wlzOylkpjwtZsS-5" target="x3ROV1wlzOylkpjwtZsS-11" edge="1">
          <mxGeometry relative="1" as="geometry" />
        </mxCell>
        <mxCell id="N-d4UP_7OqaCbr8OF022-4" value="store dumps" style="edgeLabel;html=1;align=center;verticalAlign=middle;resizable=0;points=[];labelBackgroundColor=light-dark(#f5f5f5, #ededed);fontColor=default;" parent="N-d4UP_7OqaCbr8OF022-3" vertex="1" connectable="0">
          <mxGeometry x="0.3084" y="-2" relative="1" as="geometry">
            <mxPoint y="-7" as="offset" />
          </mxGeometry>
        </mxCell>
        <mxCell id="N-d4UP_7OqaCbr8OF022-5" value="" style="endArrow=none;dashed=1;html=1;rounded=0;fontSize=12;strokeColor=#d6b656;strokeWidth=1;fillColor=#fff2cc;exitX=0.5;exitY=1;exitDx=0;exitDy=0;entryX=0.5;entryY=0;entryDx=0;entryDy=0;" parent="1" target="x3ROV1wlzOylkpjwtZsS-29" edge="1">
          <mxGeometry width="50" height="50" relative="1" as="geometry">
            <mxPoint x="1340" y="187" as="sourcePoint" />
            <mxPoint x="1400" y="229" as="targetPoint" />
          </mxGeometry>
        </mxCell>
        <mxCell id="_jCGh-t4wcf84xGPcAIb-1" value="top dumps, thread dumps (txt files) [&lt;span style=&quot;background-color: light-dark(#ffffff, var(--ge-dark-color, #121212)); color: light-dark(rgb(0, 0, 0), rgb(255, 255, 255));&quot;&gt;1m]&lt;/span&gt;" style="edgeLabel;html=1;align=center;verticalAlign=middle;resizable=0;points=[];" parent="1" vertex="1" connectable="0">
          <mxGeometry x="709.9999895833354" y="403.5" as="geometry" />
        </mxCell>
        <mxCell id="_jCGh-t4wcf84xGPcAIb-2" value="heap dumps (zip archives)&amp;nbsp;" style="edgeLabel;html=1;align=center;verticalAlign=middle;resizable=0;points=[];" parent="1" vertex="1" connectable="0">
          <mxGeometry x="716.9999895833354" y="423.5" as="geometry" />
        </mxCell>
        <mxCell id="_jCGh-t4wcf84xGPcAIb-3" value="" style="endArrow=none;dashed=1;html=1;rounded=0;fontSize=12;strokeColor=#d6b656;strokeWidth=1;fillColor=#fff2cc;exitX=0.5;exitY=1;exitDx=0;exitDy=0;" parent="1" source="x3ROV1wlzOylkpjwtZsS-69" edge="1">
          <mxGeometry width="50" height="50" relative="1" as="geometry">
            <mxPoint x="720" y="260" as="sourcePoint" />
            <mxPoint x="710" y="320" as="targetPoint" />
          </mxGeometry>
        </mxCell>
        <mxCell id="_jCGh-t4wcf84xGPcAIb-4" value="" style="endArrow=none;dashed=1;html=1;rounded=0;fontSize=12;strokeColor=#d6b656;strokeWidth=1;fillColor=#fff2cc;exitX=0.75;exitY=0;exitDx=0;exitDy=0;" parent="1" source="x3ROV1wlzOylkpjwtZsS-23" edge="1">
          <mxGeometry width="50" height="50" relative="1" as="geometry">
            <mxPoint x="720" y="280" as="sourcePoint" />
            <mxPoint x="710" y="430" as="targetPoint" />
          </mxGeometry>
        </mxCell>
      </root>
    </mxGraphModel>
  </diagram>
</mxfile>
